<?xml version="1.0" standalone="no"?>
<!DOCTYPE svg PUBLIC "-//W3C//DTD SVG 20010904//EN"
 "http://www.w3.org/TR/2001/REC-SVG-20010904/DTD/svg10.dtd">
<svg version="1.0" xmlns="http://www.w3.org/2000/svg"
 width="824.000000pt" height="323.000000pt" viewBox="0 0 824.000000 323.000000"
 preserveAspectRatio="xMidYMid meet">
<metadata>
Created by potrace 1.16, written by Peter Selinger 2001-2019
</metadata>
<g transform="translate(0.000000,323.000000) scale(0.100000,-0.100000)"
fill="#000000" stroke="none">
<path d="M4095 3100 c-3778 -5 -3830 -5 -3865 -25 -19 -10 -39 -18 -45 -16 -5
1 -7 -1 -3 -5 4 -4 -3 -16 -16 -28 -14 -12 -37 -46 -53 -76 l-28 -55 -3 -1302
-2 -1303 29 -59 c17 -32 49 -75 73 -95 83 -72 -267 -66 3958 -66 4098 0 3866
-3 3938 49 16 11 32 17 36 13 4 -4 6 -2 4 3 -1 6 9 26 23 45 70 95 69 69 66
1430 -3 1306 -2 1287 -52 1362 -34 51 -96 107 -118 108 -10 0 -26 4 -35 9 -9
4 -30 10 -47 12 -16 2 -1753 2 -3860 -1z m-3133 -452 c32 -11 78 -38 102 -60
109 -95 59 -219 -185 -460 -59 -60 -113 -108 -120 -108 -8 0 -7 6 2 19 133
181 179 286 179 410 0 78 -29 148 -81 200 l-34 33 40 -6 c22 -4 66 -16 97 -28z
m4290 5 c27 -24 23 -69 -7 -89 -21 -14 -42 -15 -139 -9 -114 7 -115 7 -138
-18 -13 -14 -31 -49 -40 -79 -24 -75 -120 -509 -114 -515 2 -2 20 11 40 31 20
19 66 57 103 84 127 96 213 123 252 81 33 -36 27 -87 -44 -325 -36 -120 -68
-245 -72 -276 -6 -55 -5 -58 17 -58 12 0 55 26 95 57 69 55 74 62 90 121 23
84 74 188 137 279 93 135 206 212 325 222 l65 6 29 99 c39 138 73 201 145 274
79 78 169 123 265 130 58 4 69 2 88 -17 26 -26 27 -62 1 -86 -17 -16 -32 -17
-139 -10 l-120 7 -26 -28 c-27 -29 -49 -95 -89 -264 -115 -484 -166 -712 -166
-738 0 -59 37 -55 124 13 33 25 60 44 60 43 1 -2 7 -10 14 -19 11 -14 1 -25
-65 -76 -97 -74 -116 -85 -175 -108 -54 -20 -94 -14 -103 15 -3 11 1 47 11 80
9 33 15 62 13 64 -2 3 -27 -16 -54 -41 -126 -114 -225 -154 -291 -118 -34 18
-64 74 -64 120 0 14 -3 25 -6 25 -3 0 -31 -23 -61 -51 -104 -95 -205 -126
-239 -74 -27 41 -13 154 42 340 60 206 76 273 68 287 -11 17 -78 3 -119 -25
-67 -45 -144 -127 -169 -180 -14 -29 -45 -135 -69 -237 l-43 -185 -68 -3 c-61
-3 -67 -1 -62 15 20 64 65 252 131 538 41 182 83 353 91 380 50 155 151 267
285 315 69 25 165 26 191 3z m-1672 -130 c48 -61 -29 -164 -98 -131 -46 23
-48 89 -5 133 34 34 75 33 103 -2z m-2261 -47 c64 -18 89 -38 97 -80 8 -43
-14 -100 -70 -184 -69 -104 -130 -162 -274 -257 -70 -46 -137 -92 -147 -102
-11 -10 -43 -36 -70 -58 -77 -61 -178 -168 -202 -216 -19 -38 -23 -41 -30 -24
-19 47 -9 129 25 200 18 38 36 72 40 75 4 3 24 26 45 52 21 27 75 77 120 113
219 176 356 351 357 458 0 34 2 37 28 37 15 0 51 -7 81 -14z m1614 -1 c46 -14
92 -41 128 -75 54 -51 65 -154 24 -236 -31 -63 -65 -95 -138 -132 l-58 -29 44
-11 c59 -15 122 -63 148 -113 31 -62 25 -173 -16 -252 -46 -93 -144 -171 -267
-214 -46 -16 -86 -18 -315 -18 -243 0 -263 1 -263 17 0 11 10 20 28 23 105 22
128 40 161 128 26 70 171 639 171 671 0 19 -6 27 -25 32 -16 4 -25 13 -25 25
0 10 3 19 6 19 4 0 51 7 106 16 55 9 102 13 105 10 3 -2 -4 -33 -16 -68 -24
-73 -61 -225 -61 -250 0 -14 9 -18 43 -18 143 0 267 119 267 256 0 112 -62
170 -198 181 -236 20 -510 -133 -607 -338 -54 -116 -64 -233 -24 -297 8 -13
38 -41 67 -63 59 -45 68 -78 28 -104 -30 -20 -62 -9 -105 37 -46 49 -71 124
-71 217 0 266 206 501 510 580 94 25 281 28 353 6z m-1316 -91 c97 -31 107
-86 41 -214 -88 -169 -284 -396 -458 -530 -25 -19 -47 -37 -50 -40 -12 -14
-172 -121 -211 -141 -155 -79 -259 -76 -259 7 0 59 40 104 174 193 68 45 132
90 142 99 11 9 46 37 79 62 77 57 261 239 313 310 51 70 99 171 108 227 6 41
8 43 40 43 18 0 55 -7 81 -16z m2793 -41 c0 -5 -14 -59 -30 -122 -17 -62 -30
-115 -30 -117 0 -2 41 -4 91 -4 l90 0 -3 -27 -3 -28 -95 -3 -96 -3 -53 -203
c-29 -112 -55 -231 -58 -265 -5 -58 -5 -60 19 -66 14 -4 41 0 63 9 42 18 156
93 167 110 5 7 15 4 29 -11 l21 -21 -73 -55 c-152 -112 -239 -157 -303 -157
-86 0 -86 101 -1 428 30 117 55 217 55 223 0 5 -31 9 -69 9 -46 0 -71 4 -74
13 -6 17 -88 -27 -134 -73 -104 -103 -142 -188 -200 -452 l-28 -128 -69 0
c-66 0 -68 1 -62 23 32 113 146 586 146 604 0 40 -42 29 -104 -28 -52 -48 -76
-55 -76 -24 0 39 193 170 267 181 67 10 70 1 41 -121 -14 -58 -22 -105 -19
-105 3 1 23 25 44 54 58 81 126 154 173 187 78 53 145 31 130 -42 -5 -27 -3
-29 24 -29 32 0 32 0 61 119 10 40 21 76 24 79 7 7 115 50 128 51 4 1 7 -2 7
-6z m-2558 -63 c66 -26 94 -49 113 -94 20 -48 19 -68 -6 -111 -43 -72 -272
-256 -449 -359 -122 -72 -210 -117 -210 -109 0 5 27 28 60 52 75 55 216 194
275 273 74 98 125 214 132 297 7 80 7 81 85 51z m4868 -99 c0 -6 -11 -45 -24
-88 -51 -164 -77 -263 -106 -400 -32 -151 -36 -188 -21 -198 14 -8 59 14 119
59 44 32 55 37 63 25 14 -22 8 -29 -78 -99 -85 -69 -153 -100 -216 -100 -49 0
-55 17 -34 99 10 36 17 70 17 74 0 5 -29 -18 -65 -51 -116 -106 -232 -149
-292 -107 -64 45 -70 203 -13 339 67 159 194 309 312 369 56 28 182 51 224 41
18 -5 32 0 47 14 31 28 67 40 67 23z m-3239 -43 c8 -18 -1 -61 -42 -203 -95
-334 -114 -421 -100 -444 13 -20 43 -6 109 54 43 39 55 45 67 35 8 -7 15 -16
15 -21 0 -13 -151 -139 -192 -160 -66 -34 -136 -19 -139 29 -5 79 19 193 96
456 31 107 42 163 36 169 -15 15 -52 -4 -105 -53 -47 -43 -58 -47 -75 -26 -9
11 1 25 53 72 82 76 156 114 219 114 40 0 49 -4 58 -22z m3551 -33 c89 -118
166 -376 168 -565 l1 -55 41 80 c95 185 123 324 93 458 -20 90 -15 124 20 133
83 21 106 -33 82 -188 -27 -173 -91 -348 -198 -540 -188 -335 -372 -498 -563
-498 -78 0 -126 26 -126 68 0 61 51 79 168 58 85 -14 113 -12 168 17 67 35
159 144 191 229 35 93 4 397 -58 562 -28 75 -78 148 -113 164 -26 13 -33 12
-89 -17 -33 -17 -61 -30 -61 -29 -1 2 -8 11 -15 20 -11 15 -2 24 86 81 54 35
105 67 113 70 32 13 56 0 92 -48z m-5046 -331 c17 -35 23 -81 38 -303 18 -269
17 -287 -19 -279 -14 2 -36 63 -96 263 -43 143 -79 269 -79 280 0 47 49 86
105 82 24 -2 34 -10 51 -43z m-248 -90 c39 -27 51 -68 102 -331 46 -239 48
-259 33 -271 -31 -23 -15 -51 -177 315 -95 213 -97 247 -21 287 38 19 36 19
63 0z m-220 -110 c33 -23 50 -64 138 -322 77 -227 78 -234 59 -248 -15 -11
-21 -12 -31 -2 -12 14 -264 418 -283 455 -23 45 -11 82 39 116 30 21 49 21 78
1z m-234 -108 c29 -12 42 -32 105 -162 160 -328 176 -365 160 -375 -8 -5 -19
-9 -26 -9 -17 0 -335 403 -352 445 -18 46 -4 81 42 100 40 18 32 17 71 1z
m-232 -96 c14 -10 76 -92 139 -180 63 -89 133 -187 156 -218 l43 -57 -22 -18
c-21 -17 -22 -17 -52 10 -36 34 -36 33 -121 108 -253 221 -285 254 -285 302 0
28 54 73 89 73 16 0 39 -9 53 -20z m1025 -161 c-8 -68 -43 -125 -121 -195
-122 -113 -314 -201 -456 -211 -85 -6 -129 8 -170 53 l-25 27 36 -21 c96 -58
318 2 522 140 119 81 207 181 207 235 0 13 3 23 6 23 4 0 4 -23 1 -51z m1544
-67 c-49 -86 -51 -93 -51 -166 0 -85 -12 -97 -49 -50 -15 20 -21 41 -21 81 0
48 -6 66 -49 139 l-50 84 34 0 c32 0 60 -22 90 -74 9 -15 14 -12 42 28 25 35
39 45 65 48 18 2 34 2 36 2 2 -1 -19 -42 -47 -92z m-1232 56 c36 -37 41 -79
14 -118 -28 -41 -45 -49 -100 -50 l-53 0 0 -65 c0 -58 -2 -65 -19 -65 -35 0
-51 38 -51 122 l0 77 83 3 c80 3 82 4 82 28 0 22 -5 25 -40 28 -61 4 -84 11
-105 32 -34 34 -24 40 69 40 86 0 89 -1 120 -32z m574 8 c20 -17 30 -38 34
-65 5 -37 2 -44 -31 -75 -20 -19 -36 -38 -36 -43 0 -4 22 -30 50 -57 27 -27
47 -53 44 -57 -3 -5 -20 -9 -37 -9 -26 0 -43 11 -87 55 -30 30 -58 55 -62 55
-4 0 -8 -25 -8 -55 0 -61 -14 -71 -50 -35 -14 14 -20 35 -21 70 -1 28 -2 62
-3 78 -1 27 0 27 64 30 96 3 112 9 108 35 -2 18 -10 22 -43 25 -61 4 -84 11
-105 32 -34 34 -24 40 68 40 78 0 90 -3 115 -24z m385 -1 c-11 -23 -62 -49
-88 -43 -9 2 -12 -24 -10 -102 1 -94 -1 -109 -20 -133 -12 -15 -30 -27 -41
-27 -18 0 -19 8 -19 133 l0 132 -52 0 c-59 0 -70 13 -37 44 21 19 35 21 151
21 l128 0 -12 -25z m1465 5 c-7 -28 -53 -50 -104 -50 -40 0 -89 -28 -89 -52 0
-4 29 -8 65 -8 71 0 79 -9 43 -47 -16 -17 -32 -23 -65 -23 -48 0 -52 -6 -23
-37 19 -21 56 -30 145 -35 l40 -3 -32 -32 c-37 -39 -85 -43 -148 -14 -99 46
-133 146 -80 238 36 61 81 82 177 83 72 0 76 -1 71 -20z m145 -7 c10 -16 31
-54 45 -85 14 -32 28 -58 31 -58 2 0 21 33 41 73 48 93 51 97 91 97 l33 0 -28
-57 c-15 -32 -52 -106 -82 -166 l-54 -107 -82 165 -82 165 34 0 c25 0 38 -7
53 -27z m532 21 c0 -34 -55 -64 -118 -64 -34 0 -82 -31 -82 -52 0 -4 29 -8 65
-8 50 0 65 -3 65 -15 0 -28 -42 -55 -87 -55 -49 0 -53 -7 -18 -40 20 -19 39
-24 100 -28 41 -2 75 -8 75 -11 0 -15 -42 -51 -65 -57 -45 -11 -109 5 -149 38
-70 57 -85 139 -41 215 36 61 81 82 178 83 42 0 77 -3 77 -6z m166 -74 c43
-44 81 -85 82 -90 2 -6 8 -10 13 -10 5 0 9 31 9 69 0 63 2 71 26 90 15 12 31
21 35 21 5 0 9 -74 9 -165 0 -124 -3 -165 -12 -165 -7 0 -54 42 -105 92 l-93
93 0 -66 c0 -52 -5 -72 -21 -93 -11 -14 -27 -26 -35 -26 -12 0 -14 29 -14 165
0 131 3 165 13 165 8 0 49 -36 93 -80z m517 62 c-6 -24 -57 -54 -86 -50 -21 3
-22 0 -27 -113 -5 -121 -15 -149 -51 -149 -18 0 -19 10 -19 133 l0 132 -55 -3
c-62 -4 -72 11 -35 48 18 18 33 20 149 20 120 0 129 -1 124 -18z m287 9 c0 -5
-8 -19 -18 -31 -14 -18 -33 -24 -83 -29 -60 -6 -64 -8 -64 -31 0 -24 3 -25 68
-30 62 -5 72 -8 98 -38 41 -45 40 -97 -1 -137 -27 -26 -40 -30 -101 -33 -78
-5 -110 6 -128 44 l-10 23 97 3 97 3 0 30 c0 30 0 30 -66 35 -71 5 -92 17
-116 63 -22 44 -10 93 30 117 25 16 50 20 115 20 45 0 82 -4 82 -9z m-3820
-157 c91 -187 86 -174 62 -174 -33 0 -70 38 -103 105 -17 36 -35 65 -40 65
-11 0 -49 -82 -43 -92 3 -5 16 -8 30 -8 29 0 31 -20 3 -46 -21 -19 -149 -35
-149 -18 0 13 154 324 160 324 3 0 39 -70 80 -156z m1442 -51 c49 -48 88 -91
88 -95 0 -11 -56 -38 -188 -92 -111 -45 -142 -54 -142 -38 0 11 112 285 123
300 5 6 14 12 21 12 6 0 50 -39 98 -87z m-289 -249 c3 -4 -2 -23 -12 -43 -25
-49 -44 -145 -36 -181 6 -27 4 -30 -17 -30 -52 0 -60 41 -28 135 11 32 18 60
16 62 -7 7 -67 -110 -79 -154 -12 -45 -26 -53 -48 -27 -18 22 -14 85 10 139
32 72 10 52 -37 -34 -54 -98 -95 -141 -132 -141 -59 0 -81 24 -31 35 33 7 62
37 121 125 63 93 80 110 110 110 38 0 40 -6 18 -49 -10 -21 -21 -56 -24 -77
-6 -38 -5 -38 8 -14 49 87 73 122 91 135 22 15 59 20 70 9z m857 -9 c11 -14
10 -92 -2 -146 -2 -6 2 -13 9 -16 15 -5 55 57 75 117 12 37 19 46 43 48 24 3
27 1 22 -20 -12 -52 -75 -207 -96 -236 -22 -32 -63 -43 -76 -22 -3 6 2 10 13
10 13 0 24 13 35 42 18 45 16 58 -7 39 -8 -7 -27 -11 -43 -9 -26 3 -28 6 -27
48 0 25 4 66 9 93 5 33 4 47 -4 47 -15 0 -60 -74 -68 -110 -6 -32 -21 -38 -41
-18 -22 22 -13 57 24 93 54 54 109 70 134 40z m1089 -11 c26 -21 31 -33 31
-68 0 -91 -123 -195 -201 -171 -20 7 -21 12 -17 69 3 33 13 78 21 99 14 32 21
37 48 37 21 0 29 -4 26 -12 -39 -89 -57 -137 -57 -156 0 -22 1 -22 29 -7 38
19 88 81 96 117 9 40 -17 78 -53 78 -52 0 -101 -20 -126 -52 -21 -27 -27 -30
-40 -19 -21 18 -20 54 2 74 29 27 64 36 139 36 63 1 75 -2 102 -25z m762 16
c21 -12 26 -68 9 -101 -11 -20 -70 -28 -70 -9 0 6 4 10 9 10 17 0 54 61 44 71
-18 18 -103 -75 -103 -111 0 -8 14 -9 45 -4 47 7 51 2 46 -46 -4 -28 -54 -60
-93 -60 -21 0 -38 2 -38 4 0 2 -3 11 -6 20 -5 12 0 16 21 16 37 0 95 29 95 47
0 10 -6 13 -17 8 -38 -15 -83 -17 -98 -5 -39 32 10 118 90 155 37 17 41 18 66
5z m-2418 -6 c12 -4 10 -18 -13 -80 -15 -41 -25 -74 -21 -73 3 0 20 19 36 42
36 50 75 62 75 24 0 -14 -13 -39 -30 -57 -16 -18 -30 -36 -30 -41 0 -18 42 -8
65 16 30 29 33 18 4 -19 -24 -30 -63 -34 -91 -9 -17 15 -19 15 -32 -2 -8 -11
-20 -16 -30 -12 -21 8 -21 77 0 143 24 71 34 81 67 68z m-185 -66 c8 -8 15 -8
25 1 20 16 50 3 42 -18 -42 -103 -44 -136 -6 -90 11 13 20 20 21 15 0 -16 -42
-56 -60 -56 -9 0 -21 5 -26 10 -8 8 -19 7 -37 -1 -38 -17 -57 2 -57 56 0 67
62 119 98 83z m1030 -21 c25 -51 -17 -127 -70 -127 -36 0 -53 34 -44 84 14 73
87 101 114 43z m117 23 c4 -6 -3 -35 -14 -65 -30 -79 -7 -80 29 -1 26 56 34
66 55 66 30 0 30 -1 3 -67 -25 -62 -17 -80 19 -38 l25 30 -18 -33 c-23 -40
-61 -53 -81 -27 -12 18 -14 18 -26 1 -8 -11 -23 -17 -38 -14 -18 2 -25 10 -27
33 -4 35 15 107 32 117 16 11 34 10 41 -2z m860 0 c4 -7 12 -7 25 0 25 14 53
2 44 -19 -42 -97 -43 -134 -3 -90 l21 24 -14 -24 c-22 -37 -44 -48 -68 -33
-15 9 -24 9 -39 1 -42 -27 -77 23 -60 85 14 51 75 87 94 56z m703 -2 c8 -8 15
-8 27 2 39 33 62 -54 28 -111 -19 -32 -43 -43 -73 -34 -14 4 -22 1 -27 -12
-11 -31 -46 -63 -69 -63 -29 0 -40 16 -14 23 21 5 46 57 62 132 14 63 40 89
66 63z m617 2 c5 -8 11 -8 19 -1 7 6 21 8 33 5 20 -6 20 -6 2 -55 -27 -71 -25
-91 6 -56 30 34 33 20 4 -17 -21 -26 -64 -36 -71 -15 -2 7 -12 7 -32 -2 -26
-12 -30 -11 -47 10 -29 35 -23 76 19 124 17 19 57 23 67 7z"/>
<path d="M5619 2051 c-20 -11 -49 -35 -63 -52 -57 -68 -118 -218 -136 -332 -9
-64 -9 -81 5 -113 9 -21 21 -42 28 -46 22 -14 82 -8 112 11 80 50 129 115 156
209 28 97 80 324 75 329 -2 2 -35 6 -72 9 -56 4 -76 1 -105 -15z"/>
<path d="M2645 1929 c-2 -8 -20 -75 -40 -151 -44 -171 -61 -222 -92 -271 -13
-21 -22 -41 -20 -44 3 -2 35 -9 73 -14 118 -17 233 18 295 89 81 92 107 243
55 322 -34 51 -80 70 -183 77 -65 5 -84 3 -88 -8z"/>
<path d="M6410 2041 c-14 -4 -39 -15 -56 -24 -133 -69 -246 -415 -163 -498 28
-28 87 -25 133 6 54 37 84 72 116 140 29 59 116 362 107 372 -9 9 -112 12
-137 4z"/>
</g>
</svg>
